<?xml version="1.0" encoding="utf-8"?>
<!-- Generator: Adobe Illustrator 26.3.1, SVG Export Plug-In . SVG Version: 6.00 Build 0)  -->
<svg version="1.1" id="Layer_1" xmlns="http://www.w3.org/2000/svg" xmlns:xlink="http://www.w3.org/1999/xlink" x="0px" y="0px"
	 viewBox="0 0 700 700" style="enable-background:new 0 0 700 700;" xml:space="preserve">
<style type="text/css">
	.st0{fill:#FFFFFF;}
</style>
<path class="st0" d="M529.9,405.6c9.9,0,18.3-7.7,18.8-17.8c1-16.4,1.4-31.4,1.4-45.2c0-53.5-6.5-88.9-16.2-113.4
	c-9.6-24.4-23.3-38.2-36-44.5c-8.1-4.1-15.2-5-19.4-5c-0.3,0-0.5,0-0.8,0l-279.7,0c-10.4,0-18.9,8.5-18.9,18.9
	c0,10.4,8.5,18.9,18.9,18.9h170.2l0,373.3c0,16.1,13.1,29.2,29.2,29.2c16.1,0,29.2-13.1,29.2-29.2V377.5h10.9v213.1
	c0,16.1,13.1,29.2,29.2,29.2c16.1,0,29.2-13.1,29.2-29.2V236.5c8.2,16.8,16.5,48.9,16.4,106c0,13-0.4,27.3-1.3,43
	c-0.6,10.4,7.3,19.3,17.8,20C529.1,405.6,529.5,405.6,529.9,405.6L529.9,405.6z"/>
<path class="st0" d="M378.9,113c0-29.3,23.8-53.1,53.1-53.1s53.1,23.8,53.1,53.1c0,29.3-23.8,53.1-53.1,53.1S378.9,142.3,378.9,113"
	/>
</svg>
