<?xml version="1.0" encoding="utf-8"?>
<!-- Generator: Adobe Illustrator 26.3.1, SVG Export Plug-In . SVG Version: 6.00 Build 0)  -->
<svg version="1.1" id="Layer_1" xmlns="http://www.w3.org/2000/svg" xmlns:xlink="http://www.w3.org/1999/xlink" x="0px" y="0px"
	 viewBox="0 0 700 700" style="enable-background:new 0 0 700 700;" xml:space="preserve">
<style type="text/css">
	.st0{fill:#FFFFFF;stroke:#FFFFFF;stroke-width:6.9397;stroke-miterlimit:10;}
</style>
<path class="st0" d="M685,169.3v158.2l-4.6,3.7v51C564.2,474.7,448,567.1,331.7,659.5C222.2,569.1,112.6,478.8,3.1,388.3V228.4
	C93.9,156.1,184.8,84,275.6,11.7l20.5,16.9v159.9l-15.6,12.4V198l-5.1-4.2L127.8,311.2l203,167l223.4-177.7l-74.7-61.7l-75,59.7
	l-1.2-1.5l-1.2,1.4l-63-52l1.2-1.4h-1.8V87.7l14.8-12l50.3,41.5l76.2-60.6l31.5,26l36.1-28.7C593.6,92,638.9,131.2,685,169.3
	L685,169.3z M60,430.6V299.1l-0.1-0.1l0.1-0.2v-0.2l0.1,0.1l2.1-2.5l63.5,54.4v134.3l204,168.4V499.9L6.8,233.3v153.4l53.2,44
	L60,430.6z M72.1,309.4v42l25.2-20.5L72.1,309.4z M72.1,356.2v67.2l-10.6,8.5l60.7,50V352.3l-22.2-18.9L72.1,356.2L72.1,356.2z
	 M647.5,344.2l-123.2,96.5V364l122-97.1L647.5,344.2z M528,420.1l26.1-20.8l61-48.5l-33.5-27.7L528,365.8L528,420.1L528,420.1z
	 M625.1,244.3l26.7-21.3l-26.7-22.1V244.3z M569,288.8l52.5-41.7v-49.3L569,154.7V288.8L569,288.8z M625.1,340.6l8.7-7v-52l-8.7,7
	V340.6z M616.6,347.3l4.8-3.8v-52l-36.8,29.3L616.6,347.3z M557.2,298.3l8.2-6.5V151.6l-52.5-43.2v153.4L557.2,298.3L557.2,298.3z
	 M513.9,104.5l31.4,25.8V79.5L513.9,104.5z M549,133.4l74.3,61.3l33.2-26.4L549.1,79.6v53.7L549,133.4z M676.7,330.3V227
	L333.5,499.9v153.5l343.2-272.9V330.3z M401.5,139.9l-59.4-49v153.4l59.4,49V139.9z M681.3,172.3l-31.4,25l30.4,25.1v104.1l1-0.8
	L681.3,172.3L681.3,172.3z M31.7,229.6l94.7,78.2l147.2-117.1V37.2L31.7,229.6z M292.5,33.3l-8.4,6.7v153.5l8.4-6.7V33.3z M280.5,40
	l-3.2-2.6v153.4l3.2,2.6V40z M509.2,105.2l-27.8-22.9v153.4l27.8,22.9V105.2z M477.7,82.2l-72.6,57.7v153.5l72.6-57.7V82.2z"/>
</svg>
